<svg id="Grupo_176007" data-name="Grupo 176007" xmlns="http://www.w3.org/2000/svg" width="670.647" height="276.859" viewBox="0 0 670.647 276.859">
  <path id="Caminho_9640" data-name="Caminho 9640" d="M20.963,23.157H24.8q6.6,0,9.457-1.7a5.852,5.852,0,0,0,2.855-5.442,5.852,5.852,0,0,0-2.855-5.442q-2.855-1.7-9.457-1.7H20.963Zm0-27.3h3.212q8.208,0,8.208-6.513T24.175-17.17H20.963ZM3.476-30.553H29.528q9.279,0,14.1,4.461t4.818,12.848a17.432,17.432,0,0,1-1.829,8.431A15.38,15.38,0,0,1,41.037.852a21.133,21.133,0,0,1,6.379,2.186A13.851,13.851,0,0,1,51.7,6.651a13.507,13.507,0,0,1,2.364,4.818,22.085,22.085,0,0,1,.714,5.71,20.2,20.2,0,0,1-1.651,8.387,17.036,17.036,0,0,1-4.639,6.156,19.836,19.836,0,0,1-7.271,3.747,34.4,34.4,0,0,1-9.636,1.249H3.476ZM63.7-9.051H79.848v7.494a18.548,18.548,0,0,1,6.335-6.29,17.038,17.038,0,0,1,8.744-2.186h1.383a9.855,9.855,0,0,1,1.74.178V5.581A15.343,15.343,0,0,0,91.09,3.975q-5.621,0-8.431,3.346t-2.81,9.77V36.718H63.7ZM120.8,13.7a10.675,10.675,0,0,0,2.989,7.494,9.812,9.812,0,0,0,3.3,2.23,10.635,10.635,0,0,0,4.149.8,10.407,10.407,0,0,0,4.059-.8,9.812,9.812,0,0,0,3.3-2.23,11.533,11.533,0,0,0,2.23-3.3,9.627,9.627,0,0,0,.848-4.015,9.933,9.933,0,0,0-.848-4.059,11.354,11.354,0,0,0-2.23-3.346,9.812,9.812,0,0,0-3.3-2.23,10.407,10.407,0,0,0-4.059-.8,10.635,10.635,0,0,0-4.149.8,9.812,9.812,0,0,0-3.3,2.23A10.993,10.993,0,0,0,121.6,9.729,9.767,9.767,0,0,0,120.8,13.7ZM141.142-9.051H157.38v45.77H141.142V31.633a16.946,16.946,0,0,1-14.007,6.513,22.737,22.737,0,0,1-9.19-1.829,22.162,22.162,0,0,1-7.316-5.13,23.684,23.684,0,0,1-4.862-7.762,26.538,26.538,0,0,1-1.74-9.725,25.793,25.793,0,0,1,1.7-9.323,23.973,23.973,0,0,1,4.729-7.717,22.3,22.3,0,0,1,7.227-5.219,22.043,22.043,0,0,1,9.279-1.918A18.641,18.641,0,0,1,141.142-4.5Zm42.2,22.662a10.675,10.675,0,0,0,2.989,7.494,9.813,9.813,0,0,0,3.3,2.23,10.635,10.635,0,0,0,4.149.8,10.407,10.407,0,0,0,4.059-.8,9.812,9.812,0,0,0,3.3-2.23,11.353,11.353,0,0,0,2.23-3.346,9.934,9.934,0,0,0,.848-4.059,9.841,9.841,0,0,0-.848-4.1,11.09,11.09,0,0,0-2.275-3.3,10.308,10.308,0,0,0-3.346-2.23,10.185,10.185,0,0,0-3.97-.8,9.627,9.627,0,0,0-4.015.848,11.532,11.532,0,0,0-3.3,2.23A10.525,10.525,0,0,0,184.19,9.6,9.627,9.627,0,0,0,183.343,13.61ZM219.566-9.051V33.6a47.578,47.578,0,0,1-.446,6.87,29.612,29.612,0,0,1-1.249,5.353,16.835,16.835,0,0,1-3.346,5.487,22.5,22.5,0,0,1-5.487,4.416,29.07,29.07,0,0,1-7.271,2.944,34.377,34.377,0,0,1-8.788,1.071,34.05,34.05,0,0,1-9.814-1.338,26.716,26.716,0,0,1-7.807-3.7,21.537,21.537,0,0,1-5.487-5.532,18.353,18.353,0,0,1-2.855-6.915h18.2q1.7,4.55,7.673,4.55,5.086,0,7.807-2.855T203.417,36V31.633a27.023,27.023,0,0,1-3.435,2.81,19.493,19.493,0,0,1-3.346,1.829,15.9,15.9,0,0,1-3.569,1.026,25.03,25.03,0,0,1-4.1.312,23.38,23.38,0,0,1-9.011-1.7,20.818,20.818,0,0,1-11.732-12,25.739,25.739,0,0,1-1.651-9.413,26.3,26.3,0,0,1,1.784-9.77,25.137,25.137,0,0,1,4.862-7.851,22.349,22.349,0,0,1,7.316-5.264,22.13,22.13,0,0,1,9.234-1.918,17.742,17.742,0,0,1,13.651,6.067V-9.051ZM246.51,13.7a10.675,10.675,0,0,0,2.989,7.494,9.812,9.812,0,0,0,3.3,2.23,10.635,10.635,0,0,0,4.149.8,10.407,10.407,0,0,0,4.06-.8,9.813,9.813,0,0,0,3.3-2.23,11.533,11.533,0,0,0,2.23-3.3,9.626,9.626,0,0,0,.848-4.015,9.933,9.933,0,0,0-.848-4.059,11.354,11.354,0,0,0-2.23-3.346,9.813,9.813,0,0,0-3.3-2.23,10.407,10.407,0,0,0-4.06-.8,10.635,10.635,0,0,0-4.149.8,9.812,9.812,0,0,0-3.3,2.23,10.994,10.994,0,0,0-2.186,3.257A9.766,9.766,0,0,0,246.51,13.7ZM266.852-9.051H283.09v45.77H266.852V31.633a16.946,16.946,0,0,1-14.007,6.513,22.737,22.737,0,0,1-9.19-1.829,22.162,22.162,0,0,1-7.316-5.13,23.684,23.684,0,0,1-4.862-7.762,26.539,26.539,0,0,1-1.74-9.725,25.792,25.792,0,0,1,1.7-9.323,23.973,23.973,0,0,1,4.729-7.717,22.3,22.3,0,0,1,7.227-5.219,22.043,22.043,0,0,1,9.279-1.918A18.641,18.641,0,0,1,266.852-4.5Zm46.216-21.5V21.908h20.967v14.81H295.581V-30.553Zm44.61,21.5v45.77H341.529V-9.051ZM340.458-26.628a8.783,8.783,0,0,1,.714-3.524,9.255,9.255,0,0,1,1.963-2.9,9.255,9.255,0,0,1,2.9-1.963,8.783,8.783,0,0,1,3.524-.714,8.783,8.783,0,0,1,3.524.714,9.255,9.255,0,0,1,2.9,1.963,9.256,9.256,0,0,1,1.963,2.9,8.783,8.783,0,0,1,.714,3.524,8.783,8.783,0,0,1-.714,3.524,9.256,9.256,0,0,1-1.963,2.9,9.255,9.255,0,0,1-2.9,1.963,8.783,8.783,0,0,1-3.524.714,8.783,8.783,0,0,1-3.524-.714,9.255,9.255,0,0,1-2.9-1.963,9.255,9.255,0,0,1-1.963-2.9A8.783,8.783,0,0,1,340.458-26.628Zm46.3,31.048v32.3H370.615V4.421h-5.353V-9.051h5.353v-13.74h16.149v13.74h9.19V4.421Z" transform="translate(-3.476 125.882)" fill="#0f0e0e"/>
  <path id="Icon_material-sharp-location-on" data-name="Icon material-sharp-location-on" d="M24.344,0A24.327,24.327,0,0,0,0,24.344C0,42.6,24.344,69.556,24.344,69.556S48.689,42.6,48.689,24.344A24.327,24.327,0,0,0,24.344,0Zm0,33.039a8.694,8.694,0,1,1,8.694-8.694,8.694,8.694,0,0,1-8.694,8.694Z" transform="matrix(0.966, 0.259, -0.259, 0.966, 302.8, 0)" fill="#0f0e0e"/>
  <path id="Icon_material-sharp-location-on-2" data-name="Icon material-sharp-location-on" d="M24.344,0A24.327,24.327,0,0,0,0,24.344C0,42.6,24.344,69.556,24.344,69.556S48.689,42.6,48.689,24.344A24.327,24.327,0,0,0,24.344,0Zm0,33.039a8.694,8.694,0,1,1,8.694-8.694,8.694,8.694,0,0,1-8.694,8.694Z" transform="matrix(0.966, 0.259, -0.259, 0.966, 144.638, 197.072)" fill="#0f0e0e"/>
  <path id="Caminho_9639" data-name="Caminho 9639" d="M-1.138,30.6l-.069.345h9.1l.069-.345c-2.654-.276-4-1.517-3.033-4.619L10.272,8.949l2.172,21.993h.965L28.3,9.018,23.13,28.391c-.414,1.586-1.069,2.068-3.275,2.206l-.069.345H30.679l.069-.345c-2.1-.138-2.379-.62-1.965-2.206L34.092,8.4c.414-1.586,1.069-2.068,3.275-2.206l.069-.345H28.99a29.081,29.081,0,0,1-2.447,4.171L17.27,23.772,15.925,9.294c-.138-1.31-.207-2.413-.241-3.447H6.377l-.069.345c2.1.276,3.619,1.172,2.654,4.274L4.1,25.978C3.136,29.081,1.172,30.322-1.138,30.6Zm39.09.689c2.516,0,5.895-3.378,8.308-7.653h.1l-.793,2.482a15.686,15.686,0,0,0-.862,3.688c0,.827.414,1.482,1.655,1.482,1.93,0,3.826-1.655,6.722-5.412l-.276-.207c-1.655,1.448-2.275,1.93-2.689,1.93-.31,0-.241-.345-.1-.9l2.551-9.2c.655-2.344,1-3.206,1-3.551,0-.172-.069-.241-.345-.241a6.809,6.809,0,0,0-3.9,1.655,3.319,3.319,0,0,0-2.861-1.172c-5.86,0-11.065,7.273-11.065,13.478C35.4,29.908,36.16,31.287,37.952,31.287Zm2.137-5.619c0-3.585,3.275-10.858,6.55-10.858.9,0,1.344.689,1.344,2a7.156,7.156,0,0,1-.379,2.172c-1.241,4.24-4.516,8.618-6.412,8.618C40.4,27.6,40.09,26.84,40.09,25.668Zm11.72,14.2-.1.379,10-.345.1-.379c-1.241-.069-3.309-.241-2.689-2.379l1.724-6.032c.517.034,1.034.034,1.344.034,5.895,0,11.238-7.48,11.238-12.134,0-2.827-1.31-4.964-5.033-4.964a10.7,10.7,0,0,0-2.585.345c.552-2,.793-2.792.793-3,0-.172-.069-.241-.241-.241-1.138,0-4.55.9-4.86,2l-.965,3.482a19.129,19.129,0,0,0-3.619,2.827l.241.207c.758-.414,1.792-.965,2.93-1.448L54.5,37.94C54.05,39.525,53.4,39.663,51.81,39.87Zm9.652-10.41a4.589,4.589,0,0,1,.241-1.275l3.413-11.513a4.4,4.4,0,0,1,.655-.034c2.1,0,2.93,1.551,2.93,3.688,0,4.137-3.1,10.2-6.412,10.2C61.668,30.528,61.462,30.046,61.462,29.46Zm16.994,1.827c2.516,0,5.895-3.378,8.308-7.653h.1l-.793,2.482a15.686,15.686,0,0,0-.862,3.688c0,.827.414,1.482,1.655,1.482,1.93,0,3.826-1.655,6.722-5.412l-.276-.207c-1.655,1.448-2.275,1.93-2.689,1.93-.31,0-.241-.345-.1-.9l2.551-9.2c.655-2.344,1-3.206,1-3.551,0-.172-.069-.241-.345-.241a6.809,6.809,0,0,0-3.9,1.655,3.319,3.319,0,0,0-2.861-1.172c-5.86,0-11.065,7.273-11.065,13.478C75.905,29.908,76.663,31.287,78.456,31.287Zm2.137-5.619c0-3.585,3.275-10.858,6.55-10.858.9,0,1.344.689,1.344,2a7.156,7.156,0,0,1-.379,2.172C86.867,23.22,83.592,27.6,81.7,27.6,80.9,27.6,80.593,26.84,80.593,25.668Zm26.233,5.619c2,0,3.861-1.689,6.756-5.412l-.276-.207c-1.655,1.448-2.379,1.93-2.723,1.93-.241,0-.207-.345-.034-.9l5.24-18.1c.517-1.827,1.1-3.413,1.1-3.619,0-.172-.069-.241-.31-.241a72.626,72.626,0,0,1-7.2,1.1l-.069.345c2.068,0,2.206.862,1.655,2.792L106.1,26.116a20.432,20.432,0,0,0-.862,3.619A1.409,1.409,0,0,0,106.826,31.287Zm12.03,0c2,0,3.861-1.689,6.756-5.412l-.276-.207c-1.655,1.448-2.379,1.93-2.723,1.93-.241,0-.207-.345-.034-.9l2.137-7.48a21.924,21.924,0,0,0,.862-3.619,1.409,1.409,0,0,0-1.586-1.551c-2,0-3.861,1.689-6.756,5.412l.241.207c1.689-1.448,2.413-1.93,2.758-1.93.241,0,.207.345.034.9l-2.137,7.48a20.431,20.431,0,0,0-.862,3.619A1.409,1.409,0,0,0,118.856,31.287ZM122.165,8.26a2.528,2.528,0,0,0,2.551,2.654,3.04,3.04,0,0,0,2.965-3.1,2.528,2.528,0,0,0-2.551-2.654A3.04,3.04,0,0,0,122.165,8.26Zm9.1,23.027c2.585,0,5.378-2.379,7.859-5.412l-.276-.276c-2.447,1.655-3.413,2-3.93,2-.586,0-.689-.345-.448-1.138l3.137-10.41h4.206l.827-1.655h-4.516l1-3.309a23.2,23.2,0,0,0,.931-3.585c0-.138-.069-.207-.241-.207-1.172,0-4.481.9-4.826,2l-1.517,5.1h-2.1l-.448,1.655h2.068l-3.482,11.617a5.631,5.631,0,0,0-.276,1.62A1.783,1.783,0,0,0,131.266,31.287Zm14.754,0c3.24,0,6.2-2.413,9.066-6.412l-.276-.172c-2.068,1.793-4.309,2.93-5.895,2.93-1.379,0-2.068-.827-2.068-2.62a12.3,12.3,0,0,1,.241-2.137c6.584-.448,10.1-3.447,10.1-6.239,0-1.861-1.827-2.585-3.757-2.585-5.653,0-11.272,6.584-11.272,12.789C142.159,29.736,143.4,31.287,146.02,31.287Zm1.241-9.1c.931-3.516,3.24-7.342,5.033-7.342.586,0,1.069.414,1.069,1.482C153.362,18.739,151.225,21.5,147.26,22.186Zm13.72,9.1c1.379,0,2.516-1.1,3.206-3,1.689-4.757,5.653-10.858,6.618-10.858.483,0,.172.9.172,1.482a1.43,1.43,0,0,0,1.517,1.448c1.138,0,2.551-1.138,2.551-3.688,0-1.793-.62-2.62-1.93-2.62-2.93,0-6.136,6.032-8.066,10.479h-.1l1.689-5.309A14.74,14.74,0,0,0,167.5,15.6a1.409,1.409,0,0,0-1.586-1.551c-2,0-3.757,1.689-6.653,5.412l.276.207c1.655-1.448,2.378-1.93,2.689-1.93.276,0,.207.414.069.9l-2.31,8.239a12.565,12.565,0,0,0-.62,2.861A1.436,1.436,0,0,0,160.98,31.287Zm17.1,0c2.516,0,5.895-3.378,8.308-7.653h.1l-.793,2.482a15.686,15.686,0,0,0-.862,3.688c0,.827.414,1.482,1.655,1.482,1.93,0,3.826-1.655,6.722-5.412l-.276-.207c-1.655,1.448-2.275,1.93-2.689,1.93-.31,0-.241-.345-.1-.9l2.551-9.2c.655-2.344,1-3.206,1-3.551,0-.172-.069-.241-.345-.241a6.809,6.809,0,0,0-3.9,1.655,3.319,3.319,0,0,0-2.861-1.172c-5.86,0-11.065,7.273-11.065,13.478C175.527,29.908,176.285,31.287,178.078,31.287Zm2.137-5.619c0-3.585,3.275-10.858,6.55-10.858.9,0,1.344.689,1.344,2a7.157,7.157,0,0,1-.379,2.172c-1.241,4.24-4.516,8.618-6.412,8.618C180.525,27.6,180.215,26.84,180.215,25.668Zm5.964-14.547.276.241c1.792-1.172,5-3,6.2-3.723a2.376,2.376,0,0,0,1.138-2,2.229,2.229,0,0,0-2.241-2.206,2.3,2.3,0,0,0-2,1.206C189.177,5.261,187.144,9.466,186.178,11.121ZM198.45,31.287c1.379,0,2.516-1.1,3.206-3,1.689-4.757,5.653-10.858,6.618-10.858.483,0,.172.9.172,1.482a1.43,1.43,0,0,0,1.517,1.448c1.138,0,2.551-1.138,2.551-3.688,0-1.793-.62-2.62-1.93-2.62-2.93,0-6.136,6.032-8.066,10.479h-.1l1.689-5.309a14.741,14.741,0,0,0,.862-3.619,1.409,1.409,0,0,0-1.586-1.551c-2,0-3.757,1.689-6.653,5.412l.276.207c1.655-1.448,2.379-1.93,2.689-1.93.276,0,.207.414.069.9l-2.31,8.239a12.565,12.565,0,0,0-.62,2.861A1.436,1.436,0,0,0,198.45,31.287Zm17.753,0c2,0,3.861-1.689,6.756-5.412l-.276-.207c-1.655,1.448-2.379,1.93-2.723,1.93-.241,0-.207-.345-.034-.9l2.137-7.48a21.924,21.924,0,0,0,.862-3.619,1.409,1.409,0,0,0-1.586-1.551c-2,0-3.861,1.689-6.756,5.412l.241.207c1.689-1.448,2.413-1.93,2.758-1.93.241,0,.207.345.034.9l-2.137,7.48a20.431,20.431,0,0,0-.862,3.619A1.409,1.409,0,0,0,216.2,31.287ZM219.512,8.26a2.528,2.528,0,0,0,2.551,2.654,3.04,3.04,0,0,0,2.965-3.1,2.528,2.528,0,0,0-2.551-2.654A3.04,3.04,0,0,0,219.512,8.26Zm13,23.027c5.86,0,9.273-6.687,9.273-11.2,0-4-2.654-6.032-5.964-6.032-5.86,0-9.273,6.687-9.273,11.2C226.544,29.253,229.2,31.287,232.508,31.287Zm-1.9-2.9c0-3.309,3.1-13.651,5.929-13.651.758,0,1.206.758,1.206,2.206,0,3.275-3.137,13.651-5.929,13.651C231.026,30.6,230.612,29.839,230.612,28.391ZM3.757,65.758c2.516,0,5.895-3.378,8.308-7.653h.1l-.793,2.482a16.1,16.1,0,0,0-.862,3.619c0,.9.414,1.551,1.655,1.551,1.93,0,3.792-1.689,6.687-5.412l-.276-.207c-1.655,1.448-2.275,1.93-2.689,1.93-.276,0-.241-.345-.069-.9l5.24-18.1c.517-1.827,1.1-3.413,1.1-3.619,0-.172-.069-.241-.31-.241a72.626,72.626,0,0,1-7.2,1.1l-.069.345c2.068,0,2.206.862,1.655,2.792l-1.689,5.929a3.22,3.22,0,0,0-2.275-.724c-5.86,0-11.065,7.273-11.065,13.478C1.206,64.379,1.964,65.758,3.757,65.758Zm2.137-5.619c0-3.585,3.275-10.858,6.55-10.858.9,0,1.344.689,1.344,2a7.157,7.157,0,0,1-.379,2.172C12.168,57.692,8.893,62.07,7,62.07,6.2,62.07,5.894,61.311,5.894,60.139Zm18.511,5.619c2.516,0,5.895-3.378,8.308-7.653h.1l-.793,2.482a15.686,15.686,0,0,0-.862,3.688c0,.827.414,1.482,1.655,1.482,1.93,0,3.826-1.655,6.722-5.412l-.276-.207c-1.655,1.448-2.275,1.93-2.689,1.93-.31,0-.241-.345-.1-.9l2.551-9.2c.655-2.344,1-3.206,1-3.551,0-.172-.069-.241-.345-.241a6.809,6.809,0,0,0-3.9,1.655,3.319,3.319,0,0,0-2.861-1.172c-5.86,0-11.065,7.273-11.065,13.478C21.854,64.379,22.613,65.758,24.405,65.758Zm2.137-5.619c0-3.585,3.275-10.858,6.55-10.858.9,0,1.344.689,1.344,2a7.157,7.157,0,0,1-.379,2.172c-1.241,4.24-4.516,8.618-6.412,8.618C26.853,62.07,26.542,61.311,26.542,60.139Zm28.611,5.619c3.137,0,6.1-2.413,8.928-6.412l-.276-.172c-2.068,1.792-4.171,2.93-5.757,2.93-1.379,0-2.068-.793-2.068-2.585,0-3.861,3.309-10.2,5.515-10.2.62,0,.965.379.689,2.1-.241,1.517.345,2.344,1.586,2.344a2.3,2.3,0,0,0,2.275-2.551c0-1.724-1.31-2.689-3.309-2.689-5.515,0-11.444,6.584-11.444,12.789C51.293,64.207,52.534,65.758,55.153,65.758Zm14.65,0c2,0,3.861-1.689,6.756-5.412l-.276-.207c-1.655,1.448-2.379,1.93-2.723,1.93-.241,0-.207-.345-.034-.9l2.137-7.48a21.924,21.924,0,0,0,.862-3.619,1.409,1.409,0,0,0-1.586-1.551c-2,0-3.861,1.689-6.756,5.412l.241.207c1.689-1.448,2.413-1.93,2.758-1.93.241,0,.207.345.034.9l-2.137,7.48a20.431,20.431,0,0,0-.862,3.619A1.409,1.409,0,0,0,69.8,65.758Zm3.309-23.027a2.528,2.528,0,0,0,2.551,2.654,3.04,3.04,0,0,0,2.965-3.1,2.528,2.528,0,0,0-2.551-2.654A3.04,3.04,0,0,0,73.113,42.731Zm9,23.027c2.516,0,5.895-3.378,8.308-7.653h.1l-.793,2.482a16.1,16.1,0,0,0-.862,3.619c0,.9.414,1.551,1.655,1.551,1.93,0,3.792-1.689,6.687-5.412l-.276-.207c-1.655,1.448-2.275,1.93-2.689,1.93-.276,0-.241-.345-.069-.9l5.24-18.1c.517-1.827,1.1-3.413,1.1-3.619,0-.172-.069-.241-.31-.241a72.626,72.626,0,0,1-7.2,1.1l-.069.345c2.068,0,2.206.862,1.655,2.792L92.9,49.384a3.22,3.22,0,0,0-2.275-.724c-5.86,0-11.065,7.273-11.065,13.478C79.559,64.379,80.317,65.758,82.11,65.758Zm2.137-5.619c0-3.585,3.275-10.858,6.55-10.858.9,0,1.344.689,1.344,2a7.157,7.157,0,0,1-.379,2.172c-1.241,4.24-4.516,8.618-6.412,8.618C84.557,62.07,84.247,61.311,84.247,60.139Zm18.511,5.619c2.516,0,5.895-3.378,8.308-7.653h.1l-.793,2.482a15.686,15.686,0,0,0-.862,3.688c0,.827.414,1.482,1.655,1.482,1.93,0,3.826-1.655,6.722-5.412l-.276-.207c-1.655,1.448-2.275,1.93-2.689,1.93-.31,0-.241-.345-.1-.9l2.551-9.2c.655-2.344,1-3.206,1-3.551,0-.172-.069-.241-.345-.241a6.809,6.809,0,0,0-3.9,1.655,3.319,3.319,0,0,0-2.861-1.172c-5.86,0-11.065,7.273-11.065,13.478C100.207,64.379,100.966,65.758,102.758,65.758Zm2.137-5.619c0-3.585,3.275-10.858,6.55-10.858.9,0,1.344.689,1.344,2a7.156,7.156,0,0,1-.379,2.172c-1.241,4.24-4.516,8.618-6.412,8.618C105.206,62.07,104.9,61.311,104.9,60.139Zm18.477,5.619c2.516,0,5.895-3.378,8.308-7.653h.1l-.793,2.482a16.094,16.094,0,0,0-.862,3.619c0,.9.414,1.551,1.655,1.551,1.93,0,3.792-1.689,6.687-5.412l-.276-.207c-1.655,1.448-2.275,1.93-2.689,1.93-.276,0-.241-.345-.069-.9l5.24-18.1c.517-1.827,1.1-3.413,1.1-3.619,0-.172-.069-.241-.31-.241a72.625,72.625,0,0,1-7.2,1.1l-.069.345c2.068,0,2.206.862,1.655,2.792l-1.689,5.929a3.22,3.22,0,0,0-2.275-.724c-5.86,0-11.065,7.273-11.065,13.478C120.821,64.379,121.579,65.758,123.372,65.758Zm2.137-5.619c0-3.585,3.275-10.858,6.55-10.858.9,0,1.344.689,1.344,2a7.157,7.157,0,0,1-.379,2.172c-1.241,4.24-4.516,8.618-6.412,8.618C125.819,62.07,125.509,61.311,125.509,60.139Zm19.924,5.619c3.24,0,6.2-2.413,9.066-6.412l-.276-.172c-2.068,1.792-4.309,2.93-5.895,2.93-1.379,0-2.068-.827-2.068-2.62a12.3,12.3,0,0,1,.241-2.137c6.584-.448,10.1-3.447,10.1-6.239,0-1.861-1.827-2.585-3.757-2.585-5.653,0-11.272,6.584-11.272,12.789C141.573,64.207,142.814,65.758,145.434,65.758Zm1.241-9.1c.931-3.516,3.24-7.342,5.033-7.342.586,0,1.069.414,1.069,1.482C152.776,53.21,150.639,55.968,146.674,56.658Zm22.648,9.1c2.516,0,5.895-3.378,8.308-7.653h.1l-.793,2.482a16.1,16.1,0,0,0-.862,3.619c0,.9.414,1.551,1.655,1.551,1.93,0,3.792-1.689,6.687-5.412l-.276-.207c-1.655,1.448-2.275,1.93-2.689,1.93-.276,0-.241-.345-.069-.9l5.24-18.1c.517-1.827,1.1-3.413,1.1-3.619,0-.172-.069-.241-.31-.241a72.624,72.624,0,0,1-7.2,1.1l-.069.345c2.068,0,2.206.862,1.655,2.792l-1.689,5.929a3.22,3.22,0,0,0-2.275-.724c-5.86,0-11.065,7.273-11.065,13.478C166.771,64.379,167.53,65.758,169.322,65.758Zm2.137-5.619c0-3.585,3.275-10.858,6.55-10.858.9,0,1.344.689,1.344,2a7.156,7.156,0,0,1-.379,2.172c-1.241,4.24-4.516,8.618-6.412,8.618C171.77,62.07,171.459,61.311,171.459,60.139Zm19.924,5.619c3.24,0,6.2-2.413,9.066-6.412l-.276-.172c-2.068,1.792-4.309,2.93-5.895,2.93-1.379,0-2.068-.827-2.068-2.62a12.3,12.3,0,0,1,.241-2.137c6.584-.448,10.1-3.447,10.1-6.239,0-1.861-1.827-2.585-3.757-2.585-5.653,0-11.272,6.584-11.272,12.789C187.523,64.207,188.764,65.758,191.384,65.758Zm1.241-9.1c.931-3.516,3.24-7.342,5.033-7.342.586,0,1.069.414,1.069,1.482C198.726,53.21,196.589,55.968,192.625,56.658ZM-.276,99.54l-.069.345H10.548c6.481,0,12.341-3.24,12.341-8.411,0-3.516-2.516-5.033-5.412-5.309V86.1c3.9-.517,7.2-2.861,7.2-6.618,0-3.068-2.275-4.688-7.722-4.688H6.825l-.069.345c2.1.138,2.413.655,1.965,2.206L3,97.334C2.55,98.919,1.9,99.4-.276,99.54ZM8.617,97.4l3.068-10.652h1.62c2.551,0,3.688,1.689,3.688,4.343,0,3.551-2.241,8.239-6.653,8.239C8.479,99.333,8.307,98.506,8.617,97.4Zm3.206-11.2,3.1-10.858H16.3c2.206,0,3.24,1.482,3.24,3.826,0,3.723-2.516,7.032-6.1,7.032Zm16.408,14.03c1.379,0,2.516-1.1,3.206-3,1.689-4.757,5.653-10.858,6.618-10.858.483,0,.172.9.172,1.482A1.43,1.43,0,0,0,39.745,89.3c1.138,0,2.551-1.138,2.551-3.688,0-1.793-.62-2.62-1.93-2.62-2.93,0-6.136,6.032-8.066,10.479h-.1l1.689-5.309a14.74,14.74,0,0,0,.862-3.619,1.409,1.409,0,0,0-1.586-1.551c-2,0-3.757,1.689-6.653,5.412l.276.207c1.655-1.448,2.379-1.93,2.689-1.93.276,0,.207.414.069.9l-2.31,8.239a12.564,12.564,0,0,0-.62,2.861A1.436,1.436,0,0,0,28.231,100.229Zm17.1,0c2.516,0,5.895-3.378,8.308-7.653h.1l-.793,2.482a15.686,15.686,0,0,0-.862,3.688c0,.827.414,1.482,1.655,1.482,1.93,0,3.826-1.655,6.722-5.412l-.276-.207c-1.655,1.448-2.275,1.93-2.689,1.93-.31,0-.241-.345-.1-.9l2.551-9.2c.655-2.344,1-3.206,1-3.551,0-.172-.069-.241-.345-.241A6.809,6.809,0,0,0,56.7,84.3a3.319,3.319,0,0,0-2.861-1.172c-5.86,0-11.065,7.273-11.065,13.478C42.778,98.85,43.537,100.229,45.329,100.229Zm2.137-5.619c0-3.585,3.275-10.858,6.55-10.858.9,0,1.344.689,1.344,2a7.156,7.156,0,0,1-.379,2.172c-1.241,4.24-4.516,8.618-6.412,8.618C47.777,96.541,47.466,95.782,47.466,94.61Zm20.89,14.926c5.481,0,8.135-2.689,8.135-5.515A5.269,5.269,0,0,0,73.8,99.609l-3.068-2c-1.069-.689-1.517-1.138-1.517-1.448,0-.414.9-.689,2.516-1.275,3.516-1.275,5.515-4,5.515-6.687a4.49,4.49,0,0,0-1.138-2.965,5.553,5.553,0,0,0,2.654.862,1.869,1.869,0,0,0,2.068-1.689,1.369,1.369,0,0,0-1.517-1.413c-1.034,0-1.586.689-3.1.689s-2.068-.689-4.412-.689a7.746,7.746,0,0,0-7.515,7.515,4.675,4.675,0,0,0,4.757,4.826h-.034c-2.379.655-3.688,1.517-3.688,2.62a3.273,3.273,0,0,0,1.517,2.344c-5.584.345-7.894,1.9-7.894,3.964C58.945,106.951,62.668,109.536,68.356,109.536Zm-5.136-5c0-1.793,1.448-3.275,4.447-3.688l2.93,1.93c1.586,1.034,2.275,2.241,2.275,3.344,0,1.448-1.206,2.585-3.723,2.585C65.288,108.709,63.22,106.606,63.22,104.538ZM67.839,92.68c0-2.758,2.206-9.066,4.55-9.066.827,0,1.31.827,1.31,2.241,0,2.62-2.206,8.928-4.55,8.928C68.321,94.783,67.839,93.955,67.839,92.68Zm15.409,7.549c2.516,0,5.895-3.378,8.308-7.653h.1l-.793,2.482A15.686,15.686,0,0,0,90,98.747c0,.827.414,1.482,1.655,1.482,1.93,0,3.826-1.655,6.722-5.412L98.1,94.61c-1.655,1.448-2.275,1.93-2.689,1.93-.31,0-.241-.345-.1-.9l2.551-9.2c.655-2.344,1-3.206,1-3.551,0-.172-.069-.241-.345-.241a6.809,6.809,0,0,0-3.9,1.655,3.319,3.319,0,0,0-2.861-1.172C85.9,83.131,80.7,90.4,80.7,96.61,80.7,98.85,81.455,100.229,83.247,100.229Zm2.137-5.619c0-3.585,3.275-10.858,6.55-10.858.9,0,1.344.689,1.344,2a7.157,7.157,0,0,1-.379,2.172c-1.241,4.24-4.516,8.618-6.412,8.618C85.695,96.541,85.385,95.782,85.385,94.61Z" transform="translate(428.866 78.938)" fill="#0f0e0e"/>
</svg>
