<svg xmlns="http://www.w3.org/2000/svg" width="23.706" height="23.706" viewBox="0 0 23.706 23.706">
  <g id="Grupo_3348" data-name="Grupo 3348" transform="translate(0)">
    <path id="Caminho_9624" data-name="Caminho 9624" d="M222.574,139.237c3.165,0,3.54.012,4.79.069a6.568,6.568,0,0,1,2.2.409,3.917,3.917,0,0,1,2.249,2.249,6.568,6.568,0,0,1,.409,2.2c.057,1.251.069,1.626.069,4.79s-.013,3.54-.069,4.789a6.57,6.57,0,0,1-.409,2.2,3.917,3.917,0,0,1-2.249,2.249,6.544,6.544,0,0,1-2.2.408c-1.251.057-1.624.069-4.79.069s-3.54-.013-4.789-.069a6.551,6.551,0,0,1-2.2-.408,3.926,3.926,0,0,1-2.249-2.249,6.547,6.547,0,0,1-.408-2.2c-.057-1.25-.069-1.624-.069-4.789s.012-3.54.069-4.79a6.545,6.545,0,0,1,.408-2.2,3.926,3.926,0,0,1,2.249-2.249,6.575,6.575,0,0,1,2.2-.409c1.25-.057,1.624-.069,4.789-.069m0-2.136c-3.219,0-3.623.015-4.887.072a8.715,8.715,0,0,0-2.877.551,6.061,6.061,0,0,0-3.466,3.467,8.678,8.678,0,0,0-.551,2.877c-.058,1.264-.072,1.668-.072,4.887s.014,3.622.072,4.887a8.678,8.678,0,0,0,.551,2.877,6.061,6.061,0,0,0,3.466,3.467,8.745,8.745,0,0,0,2.877.551c1.264.057,1.668.07,4.887.07s3.622-.014,4.887-.07a8.739,8.739,0,0,0,2.877-.551,6.068,6.068,0,0,0,3.467-3.467,8.706,8.706,0,0,0,.551-2.877c.058-1.264.072-1.668.072-4.887s-.014-3.622-.072-4.887a8.707,8.707,0,0,0-.551-2.877,6.068,6.068,0,0,0-3.467-3.467,8.71,8.71,0,0,0-2.877-.551c-1.264-.057-1.668-.072-4.887-.072" transform="translate(-210.722 -137.101)" fill="#f0f0f0"/>
    <path id="Caminho_9625" data-name="Caminho 9625" d="M220.167,142.178a4.369,4.369,0,1,0,4.369,4.369,4.369,4.369,0,0,0-4.369-4.369m0,7.2A2.836,2.836,0,1,1,223,146.547a2.836,2.836,0,0,1-2.836,2.836" transform="translate(-208.315 -134.693)" fill="#f0f0f0"/>
    <path id="Caminho_9626" data-name="Caminho 9626" d="M229.165,142.56a1.846,1.846,0,1,1-1.846-1.846,1.846,1.846,0,0,1,1.846,1.846" transform="translate(-209.397 -136.777)" fill="#f0f0f0"/>
  </g>
</svg>
