<svg xmlns="http://www.w3.org/2000/svg" width="24.171" height="23.707" viewBox="0 0 24.171 23.707">
  <g id="Grupo_175883" data-name="Grupo 175883" transform="translate(0)">
    <path id="Caminho_9636" data-name="Caminho 9636" d="M112.878,204.889c0-2.24,1.031-3.575,3.007-3.575,1.814,0,2.686,1.282,2.686,3.575v8.367h4.911V203.164c0-4.269-2.42-6.334-5.8-6.334a5.556,5.556,0,0,0-4.8,2.633v-2.146h-4.733v15.939h4.733Z" transform="translate(-99.31 -189.55)" fill="#f0f0f0"/>
    <rect id="Retângulo_1342" data-name="Retângulo 1342" width="4.934" height="15.94" transform="translate(0.474 7.767)" fill="#f0f0f0"/>
    <path id="Caminho_9635" data-name="Caminho 9635" d="M104.228,196.739a2.941,2.941,0,1,0-2.918-2.941A2.93,2.93,0,0,0,104.228,196.739Z" transform="translate(-101.31 -190.857)" fill="#f0f0f0"/>
  </g>
</svg>
