<svg xmlns="http://www.w3.org/2000/svg" width="33.269" height="33.29" viewBox="0 0 33.269 33.29">
  <path id="search_64dp_E8EAED_FILL0_wght100_GRAD0_opsz48" d="M193.265-767.928l-12.809-12.809a10.083,10.083,0,0,1-3.482,2.07,11.729,11.729,0,0,1-3.931.7,10.683,10.683,0,0,1-7.837-3.194A10.608,10.608,0,0,1,162-788.973a10.658,10.658,0,0,1,3.194-7.824A10.6,10.6,0,0,1,173-800a10.763,10.763,0,0,1,7.85,3.2,10.556,10.556,0,0,1,3.239,7.812,11.31,11.31,0,0,1-.756,4.045,10.32,10.32,0,0,1-2.068,3.4l12.809,12.758Zm-20.222-11.145a9.64,9.64,0,0,0,7.062-2.849,9.548,9.548,0,0,0,2.872-7.06,9.548,9.548,0,0,0-2.872-7.06,9.639,9.639,0,0,0-7.062-2.849,9.639,9.639,0,0,0-7.062,2.849,9.548,9.548,0,0,0-2.872,7.06,9.548,9.548,0,0,0,2.872,7.06A9.64,9.64,0,0,0,173.044-779.072Z" transform="translate(-161.5 800.5)" fill="#0f0e0e" stroke="#0f0e0e" stroke-width="1"/>
</svg>
