<svg xmlns="http://www.w3.org/2000/svg" width="31.992" height="24" viewBox="0 0 31.992 24">
  <g id="Grupo_175884" data-name="Grupo 175884" transform="translate(0 0)">
    <path id="Caminho_9637" data-name="Caminho 9637" d="M16.558,6.5c4.08,0,7.417.069,10.5.206h.087a2.877,2.877,0,0,1,2.624,3.068v.069l.006.069c.144,2.124.212,4.33.212,6.555s-.069,4.43-.212,6.555l-.006.069v.069a3.311,3.311,0,0,1-.837,2.256,2.418,2.418,0,0,1-1.787.837h-.1c-3.305.156-6.8.237-10.4.237H15.315c-3.612,0-7.1-.081-10.385-.231h-.1a2.406,2.406,0,0,1-1.781-.837,3.342,3.342,0,0,1-.837-2.256V23.1l-.006-.069C2.056,20.9,1.987,18.69,2,16.484v-.012c-.006-2.206.062-4.405.206-6.536l.006-.069V9.8A2.88,2.88,0,0,1,4.83,6.718h.087c3.093-.144,6.43-.206,10.51-.206h1.131m0-2.012H15.433c-3.6,0-7.136.05-10.6.206A4.862,4.862,0,0,0,.219,9.786C.062,12.023-.006,14.247,0,16.478s.056,4.455.212,6.686a4.879,4.879,0,0,0,4.618,5.1q5.136.244,10.485.237h1.35q5.352,0,10.491-.237a4.88,4.88,0,0,0,4.624-5.1q.225-3.346.212-6.692c.006-2.231-.062-4.455-.212-6.692a4.851,4.851,0,0,0-4.624-5.067c-3.462-.162-6.992-.212-10.6-.212Z" transform="translate(0 -4.5)" fill="#f0f0f0"/>
    <path id="Caminho_9638" data-name="Caminho 9638" d="M14.555,21.87v-10.8l10.2,5.4Z" transform="translate(-2.26 -4.5)" fill="#f0f0f0"/>
  </g>
</svg>
